<?xml version="1.0" encoding="UTF-8"?>
<svg width="30px" height="30px" viewBox="0 0 30 30" version="1.1" xmlns="http://www.w3.org/2000/svg" xmlns:xlink="http://www.w3.org/1999/xlink">
    <!-- Generator: Sketch 41.1 (35376) - http://www.bohemiancoding.com/sketch -->
    <title>hint icon</title>
    <desc>Created with Sketch.</desc>
    <defs>
        <polygon id="path-1" points="0 19.3082387 17.8079491 19.3082387 17.8079491 0 0 0"></polygon>
    </defs>
    <g id="Page-1" stroke="none" stroke-width="1" fill="none" fill-rule="evenodd">
        <g id="Mobile-before-login" transform="translate(-36.000000, -447.000000)">
            <g id="hint-icon" transform="translate(36.000000, 447.000000)">
                <ellipse id="Oval" fill="#734098" cx="14.9819841" cy="14.9902661" rx="14.9819841" ry="14.9902661"></ellipse>
                <g id="Page-1" transform="translate(5.981984, 5.172084)">
                    <path d="M8.90387198,5.0449349 C6.49174852,5.0449349 4.53644954,7.00972834 4.53644954,9.43356448 C4.53644954,10.3065083 4.79019533,11.1198816 5.22732732,11.8033956 L7.14960037,15.3613372 L10.8119911,15.3613372 L12.5804166,11.8033956 C13.0175486,11.1198816 13.2712944,10.3065083 13.2712944,9.43356448 C13.2712944,7.00972834 11.3159954,5.0449349 8.90387198,5.0449349 L8.90387198,5.0449349 Z M8.90387198,5.57983198 C11.018557,5.57983198 12.7389821,7.3086111 12.7389821,9.43356448 C12.7389821,10.1745876 12.5293393,10.8939675 12.1326179,11.5139946 L12.117028,11.5383175 L12.1041048,11.5642894 L10.4827574,14.826234 L7.46632107,14.826234 L5.69522881,11.5480054 L5.68579283,11.5306908 L5.67512607,11.5139946 C5.27840468,10.8939675 5.06876184,10.1743815 5.06876184,9.43356448 C5.06876184,7.3086111 6.789187,5.57983198 8.90387198,5.57983198 L8.90387198,5.57983198 Z" id="Fill-1" fill="#FFFFFF"></path>
                    <path d="M6.77954589,9.1124201 L6.24723359,9.1124201 C6.24723359,7.8175363 7.29565292,6.76381997 8.58448459,6.76381997 L8.58448459,7.29871705 C7.58919392,7.29892318 6.77954589,8.11250267 6.77954589,9.1124201" id="Fill-3" fill="#FFFFFF"></path>
                    <mask id="mask-2" fill="white">
                        <use xlink:href="#path-1"></use>
                    </mask>
                    <g id="Clip-6"></g>
                    <polygon id="Fill-5" fill="#FFFFFF" mask="url(#mask-2)" points="7.14960037 16.3462075 10.8267604 16.3462075 10.8267604 15.6703202 7.14960037 15.6703202"></polygon>
                    <polygon id="Fill-7" fill="#FFFFFF" mask="url(#mask-2)" points="7.14960037 17.3312838 10.8267604 17.3312838 10.8267604 16.6553965 7.14960037 16.6553965"></polygon>
                    <polygon id="Fill-8" fill="#FFFFFF" mask="url(#mask-2)" points="7.14960037 18.316154 10.8267604 18.316154 10.8267604 17.6402668 7.14960037 17.6402668"></polygon>
                    <polygon id="Fill-9" fill="#FFFFFF" mask="url(#mask-2)" points="7.911248 19.3082387 10.0651128 19.3082387 10.0651128 18.6323514 7.911248 18.6323514"></polygon>
                    <path d="M9.22469527,2.78847311 L9.22469527,0.00556540316 C9.11802768,0.00226738647 9.01115496,0 8.90387198,0 C8.796589,0 8.68971627,0.00226738647 8.58304868,0.00556540316 L8.58304868,2.78847311 L9.22469527,2.78847311 Z" id="Fill-10" fill="#FFFFFF" mask="url(#mask-2)"></path>
                    <path d="M13.9685312,4.98825024 L15.8813683,3.06612489 C15.7369568,2.90740784 15.587417,2.75363781 15.4333644,2.60440255 L13.5147837,4.53229943 L13.9685312,4.98825024 Z" id="Fill-11" fill="#FFFFFF" mask="url(#mask-2)"></path>
                    <path d="M15.2200292,9.94393256 L17.795231,9.94393256 C17.8036414,9.77490921 17.8079491,9.60464909 17.8079491,9.43356448 C17.8079491,9.388629 17.8069234,9.34389965 17.806308,9.2991703 L15.2200292,9.2991703 L15.2200292,9.94393256 Z" id="Fill-12" fill="#FFFFFF" mask="url(#mask-2)"></path>
                    <path d="M2.58771472,9.2991703 L0.00164103985,9.2991703 C0.00102564991,9.34389965 0,9.388629 0,9.43356448 C0,9.60464909 0.00430772961,9.77490921 0.0127180589,9.94393256 L2.58791985,9.94393256 L2.58771472,9.2991703 Z" id="Fill-13" fill="#FFFFFF" mask="url(#mask-2)"></path>
                    <path d="M4.29296025,4.53229943 L2.37437954,2.60440255 C2.22032692,2.75363781 2.07078716,2.90740784 1.92637566,3.06612489 L3.83921273,4.98825024 L4.29296025,4.53229943 Z" id="Fill-14" fill="#FFFFFF" mask="url(#mask-2)"></path>
                </g>
            </g>
        </g>
    </g>
</svg>